<svg width="263" height="174" viewBox="0 0 263 174" fill="none" xmlns="http://www.w3.org/2000/svg">
<g clip-path="url(#clip0_1_2)">
<path fill-rule="evenodd" clip-rule="evenodd" d="M27.994 0.837L46.614 11.587C48.548 12.704 49.739 14.767 49.74 17V38.5C49.74 40.733 48.549 42.797 46.615 43.913L27.995 54.663C27.028 55.221 25.949 55.5 24.87 55.5C23.791 55.5 22.712 55.221 21.745 54.663L3.125 43.913C1.191 42.797 0 40.733 0 38.5V17C0 14.767 1.191 12.704 3.124 11.587L21.744 0.837C23.678 -0.279 26.06 -0.279 27.994 0.837ZM34.402 20.905C35.424 20.784 36.399 20.512 37.304 20.11C36.627 21.124 35.77 22.014 34.783 22.726C34.793 22.942 34.797 23.161 34.797 23.38C34.797 30.057 29.714 37.758 20.419 37.758C17.565 37.758 14.909 36.921 12.672 35.487C13.068 35.534 13.47 35.558 13.878 35.558C16.246 35.558 18.425 34.749 20.154 33.394C17.943 33.354 16.077 31.892 15.434 29.885C15.743 29.944 16.059 29.976 16.385 29.976C16.846 29.976 17.293 29.913 17.717 29.798C15.405 29.334 13.663 27.291 13.663 24.843V24.78C14.345 25.159 15.124 25.386 15.952 25.412C14.596 24.506 13.704 22.959 13.704 21.206C13.704 20.279 13.953 19.411 14.388 18.665C16.881 21.723 20.605 23.735 24.805 23.945C24.718 23.575 24.674 23.19 24.674 22.794C24.674 20.003 26.936 17.74 29.727 17.74C31.18 17.74 32.494 18.354 33.415 19.336C34.566 19.109 35.647 18.689 36.624 18.109C36.247 19.29 35.446 20.28 34.402 20.905Z" fill="black"/>
<path opacity="0.03" d="M45.115 14.185L26.495 3.435C26.001 3.151 25.439 3 24.87 3V52.5C25.439 52.5 26.002 52.35 26.495 52.064L45.115 41.314C46.117 40.736 46.74 39.658 46.74 38.5V17C46.739 15.842 46.117 14.764 45.115 14.185Z" fill="black"/>
<path fill-rule="evenodd" clip-rule="evenodd" d="M81.137 0.837L99.757 11.587C101.691 12.704 102.882 14.767 102.882 17V38.499C102.882 40.732 101.691 42.796 99.757 43.912L81.137 54.662C80.17 55.22 79.091 55.499 78.012 55.499C76.933 55.499 75.854 55.22 74.887 54.662L56.268 43.912C54.334 42.796 53.143 40.732 53.143 38.499V16.999C53.143 14.767 54.334 12.703 56.268 11.587L74.887 0.837C76.821 -0.279 79.203 -0.279 81.137 0.837ZM80.054 23.426H83.876L83.439 27.691H80.054V39.759H75.037V27.691H72.652V23.426H75.037V20.667C75.037 18.691 75.976 15.604 80.1 15.604L83.814 15.619V19.758H81.117C80.678 19.758 80.054 19.978 80.054 20.919V23.426Z" fill="black"/>
<path opacity="0.05" d="M98.257 14.185L79.637 3.435C79.144 3.151 78.583 3 78.012 3V52.5C78.581 52.5 79.144 52.35 79.637 52.064L98.257 41.314C99.259 40.736 99.882 39.658 99.882 38.5V17C99.882 15.842 99.259 14.764 98.257 14.185Z" fill="black"/>
<path fill-rule="evenodd" clip-rule="evenodd" d="M134.637 0.837L153.257 11.587C155.191 12.704 156.382 14.767 156.382 17V38.499C156.382 40.732 155.191 42.796 153.257 43.912L134.637 54.662C133.67 55.22 132.591 55.499 131.512 55.499C130.433 55.499 129.354 55.22 128.387 54.662L109.768 43.912C107.834 42.796 106.643 40.732 106.643 38.499V16.999C106.643 14.767 107.834 12.703 109.768 11.587L128.387 0.837C130.321 -0.279 132.703 -0.279 134.637 0.837ZM139.559 18.067C140.002 18.455 140.418 18.874 140.802 19.321C142.664 21.484 143.791 24.297 143.792 27.373C143.792 27.4751 143.789 27.5766 143.785 27.678C143.784 27.7117 143.783 27.7453 143.782 27.779C143.762 28.38 143.7 28.969 143.598 29.545C142.948 33.203 140.693 36.303 137.584 38.092C137.059 38.394 136.511 38.658 135.942 38.881C134.544 39.429 133.023 39.734 131.431 39.734C128.998 39.734 126.731 39.028 124.819 37.815C124.274 37.47 123.758 37.083 123.276 36.659C120.699 34.394 119.07 31.075 119.07 27.374C119.07 27.142 119.077 26.91 119.091 26.681C119.123 26.091 119.198 25.511 119.31 24.945C120.06 21.187 122.514 18.046 125.831 16.357C126.386 16.074 126.966 15.832 127.567 15.634C128.783 15.234 130.08 15.014 131.431 15.014C134.543 15.014 137.386 16.168 139.559 18.067ZM138.43 19.421C136.56 17.773 134.114 16.764 131.431 16.764C130.516 16.764 129.634 16.893 128.787 17.111C130.185 18.91 131.488 20.963 132.655 23.224C134.974 22.267 136.939 20.975 138.43 19.421ZM130.983 23.838C129.786 21.56 128.446 19.51 127.017 17.739C124.041 19.107 121.804 21.807 121.078 25.078C121.541 25.098 122.003 25.108 122.462 25.108C125.557 25.108 128.441 24.657 130.983 23.838ZM120.82 27.374C120.82 30.26 121.982 32.878 123.858 34.792C124.253 33.799 124.773 32.86 125.433 31.994C127.156 29.733 129.644 28.165 132.654 27.391C132.371 26.717 132.075 26.058 131.768 25.414C128.99 26.345 125.84 26.856 122.461 26.856C121.926 26.856 121.388 26.84 120.849 26.814C120.846 26.8805 120.841 26.9467 120.837 27.0128C120.828 27.1329 120.82 27.2528 120.82 27.374ZM125.272 35.998C127.011 37.244 129.133 37.985 131.431 37.985C132.919 37.985 134.337 37.673 135.625 37.118C135.431 36.147 135.208 35.17 134.952 34.187C134.487 32.405 133.933 30.682 133.309 29.032C130.581 29.689 128.344 31.062 126.825 33.055C126.141 33.952 125.63 34.942 125.272 35.998ZM136.645 33.746C136.864 34.585 137.054 35.419 137.228 36.25C139.66 34.657 141.391 32.094 141.885 29.115C140.305 28.772 138.741 28.588 137.228 28.588C136.484 28.588 135.765 28.635 135.069 28.72C135.663 30.33 136.192 32.009 136.645 33.746ZM134.414 27.038C135.316 26.905 136.255 26.837 137.228 26.837C138.794 26.837 140.41 27.02 142.041 27.36C142.038 24.823 141.139 22.493 139.645 20.667C138.013 22.349 135.903 23.749 133.429 24.789C133.771 25.52 134.101 26.271 134.414 27.038Z" fill="black"/>
<path opacity="0.05" d="M151.757 14.185L133.137 3.435C132.644 3.151 132.083 3 131.512 3V52.5C132.081 52.5 132.644 52.35 133.137 52.064L151.757 41.314C152.759 40.736 153.382 39.658 153.382 38.5V17C153.382 15.842 152.759 14.764 151.757 14.185Z" fill="black"/>
<path fill-rule="evenodd" clip-rule="evenodd" d="M187.137 0.837L205.757 11.587C207.691 12.704 208.882 14.767 208.882 17V38.499C208.882 40.732 207.691 42.796 205.757 43.912L187.137 54.662C186.17 55.22 185.091 55.499 184.012 55.499C182.933 55.499 181.854 55.22 180.887 54.662L162.268 43.912C160.333 42.796 159.143 40.732 159.143 38.499V16.999C159.143 14.767 160.333 12.703 162.268 11.587L180.887 0.837C182.821 -0.279 185.203 -0.279 187.137 0.837ZM174.378 24.173C174.378 20.111 177.803 15.241 184.596 15.241C190.055 15.241 193.648 19.191 193.648 23.434C193.648 29.043 190.529 33.232 185.933 33.232C184.389 33.232 182.937 32.398 182.441 31.45C182.441 31.45 181.611 34.744 181.435 35.381C180.847 37.5155 179.173 39.6528 178.887 40.0176C178.872 40.0366 178.861 40.0509 178.854 40.06C178.755 40.188 178.536 40.148 178.514 39.978C178.512 39.9639 178.509 39.9437 178.505 39.9177C178.431 39.4141 178.037 36.7445 178.556 34.545C178.832 33.383 180.396 26.754 180.396 26.754C180.396 26.754 179.94 25.841 179.94 24.491C179.94 22.372 181.169 20.79 182.697 20.79C183.998 20.79 184.626 21.766 184.626 22.936C184.626 23.7703 184.287 24.8686 183.929 26.025C183.727 26.6802 183.519 27.354 183.363 28.009C183.005 29.527 184.125 30.764 185.62 30.764C188.328 30.764 190.153 27.283 190.153 23.161C190.153 20.028 188.043 17.682 184.204 17.682C179.868 17.682 177.164 20.917 177.164 24.529C177.164 25.775 177.533 26.655 178.108 27.334C178.373 27.647 178.41 27.773 178.314 28.13C178.277 28.27 178.215 28.5139 178.156 28.7495C178.103 28.9581 178.052 29.1601 178.021 29.278C177.926 29.64 177.633 29.769 177.306 29.635C175.309 28.819 174.378 26.632 174.378 24.173Z" fill="black"/>
<path opacity="0.05" d="M204.257 14.185L185.637 3.435C185.144 3.151 184.583 3 184.012 3V52.5C184.581 52.5 185.144 52.35 185.637 52.064L204.257 41.314C205.259 40.736 205.882 39.658 205.882 38.5V17C205.882 15.842 205.259 14.764 204.257 14.185Z" fill="black"/>
<path fill-rule="evenodd" clip-rule="evenodd" d="M240.636 0.837L259.257 11.587C261.191 12.704 262.382 14.767 262.382 17V38.499C262.382 40.732 261.191 42.796 259.257 43.912L240.636 54.662C239.669 55.22 238.591 55.499 237.511 55.499C236.433 55.499 235.353 55.22 234.386 54.662L215.767 43.912C213.833 42.796 212.642 40.732 212.642 38.499V16.999C212.642 14.767 213.833 12.703 215.767 11.587L234.386 0.837C236.32 -0.279 238.702 -0.279 240.636 0.837ZM234.137 21.5975C234.186 21.5867 234.236 21.576 234.289 21.568C251.052 18.6969 256.776 27.4666 256.882 27.6287C256.882 27.6302 256.883 27.631 256.883 27.631L241.24 32.164L237.619 24.762C239.367 24.469 241.008 24.552 242.447 24.82L243.978 27.681L249.296 26.237C249.296 26.237 242.845 21.671 235.118 23.904L239.423 32.694L223.757 37.229C223.757 37.229 219.208 27.174 229.476 22.909L227.492 18.825L232.361 18.269L234.003 21.624C234.049 21.6165 234.093 21.607 234.137 21.5975ZM230.88 25.797C226.487 28.668 227.997 32.021 227.997 32.021L233.217 30.606L230.88 25.797Z" fill="black"/>
<path opacity="0.05" d="M257.757 14.185L239.136 3.435C238.644 3.151 238.082 3 237.511 3V52.5C238.081 52.5 238.644 52.35 239.136 52.064L257.757 41.314C258.759 40.736 259.382 39.658 259.382 38.5V17C259.382 15.842 258.759 14.764 257.757 14.185Z" fill="black"/>
<path d="M46.614 70.587L27.994 59.837C26.06 58.721 23.678 58.721 21.744 59.837L3.124 70.587C1.191 71.704 0 73.767 0 76V97.5C0 99.733 1.191 101.797 3.125 102.913L21.745 113.663C22.712 114.221 23.791 114.5 24.87 114.5C25.949 114.5 27.028 114.221 27.995 113.663L46.615 102.913C48.549 101.797 49.74 99.733 49.74 97.5V76C49.739 73.767 48.548 71.704 46.614 70.587Z" fill="#98B76C"/>
<path d="M15.233 94.151C15.516 94.151 15.799 94.151 16.082 94.151C18.189 94.151 19.986 94.206 21.933 95.164C23.429 95.9 24.665 97.077 26.122 97.895C27.504 98.67 29.08 99.485 30.699 99.668C33.956 100.035 35.264 96.272 34.723 93.832C33.272 94.95 31.248 94.922 29.393 94.435C27.648 93.879 24.871 92.151 24.871 92.151V92.152C23.625 91.409 22.162 90.794 20.693 90.856C20.693 90.223 20.712 90.199 21.115 89.752C21.67 89.138 22.225 88.523 22.78 87.909C24.526 85.973 26.272 84.04 28.017 82.106C29.503 80.46 30.988 78.815 32.474 77.169C32.617 77.012 33.14 76.607 33.166 76.39C33.257 75.643 33.347 74.896 33.437 74.148C33.5 73.63 32.937 73.754 32.937 73.754L32.936 73.751C30.528 74.22 28.051 74.464 25.596 74.356C24.23 74.296 22.792 74.171 21.509 73.684C21.463 73.666 21.191 73.534 20.937 73.4C20.567 73.218 20.32 73.337 20.189 73.442C20.085 73.565 19.975 73.684 19.877 73.811C19.231 74.654 18.631 75.643 18.522 76.7C18.497 76.935 18.466 77.433 18.602 77.731L18.6 77.733C18.6 77.733 18.616 77.769 18.656 77.828C18.663 77.837 18.669 77.848 18.676 77.855C18.984 78.261 20.399 79.482 25.926 78.423C22.329 82.48 18.733 86.536 15.137 90.594C15.136 90.594 15.136 90.594 15.136 90.594C14.936 90.821 14.903 91.19 14.903 91.19C14.903 91.91 14.903 92.629 14.903 93.35C14.903 93.374 14.901 93.534 14.901 93.704C14.968 94.066 15.137 94.139 15.233 94.151Z" fill="white"/>
<path opacity="0.05" d="M45.115 73.185L26.495 62.435C26.001 62.151 25.439 62 24.87 62V111.5C25.439 111.5 26.002 111.35 26.495 111.064L45.115 100.314C46.117 99.736 46.74 98.658 46.74 97.5V76C46.739 74.842 46.117 73.764 45.115 73.185Z" fill="black"/>
<path d="M99.757 70.587L81.137 59.837C79.203 58.721 76.821 58.721 74.887 59.837L56.268 70.587C54.334 71.703 53.143 73.767 53.143 75.999V97.499C53.143 99.732 54.334 101.796 56.268 102.912L74.887 113.662C75.854 114.22 76.933 114.499 78.012 114.499C79.091 114.499 80.17 114.22 81.137 113.662L99.757 102.912C101.691 101.796 102.882 99.732 102.882 97.499V76C102.882 73.767 101.691 71.704 99.757 70.587Z" fill="#F5A12A"/>
<path d="M66.837 87.169C69.712 87.169 72.415 88.292 74.446 90.335C76.481 92.378 77.601 95.099 77.601 97.995H82.032C82.032 89.582 75.216 82.738 66.837 82.738V87.169V87.169ZM66.844 79.315C77.091 79.315 85.427 87.698 85.427 98.001H89.858C89.858 85.254 79.534 74.885 66.844 74.885V79.315ZM72.971 94.906C72.971 96.6 71.596 97.975 69.902 97.975C68.208 97.975 66.834 96.6 66.834 94.906C66.834 93.211 68.208 91.837 69.902 91.837C71.596 91.837 72.971 93.21 72.971 94.906Z" fill="white"/>
<path opacity="0.05" d="M98.257 73.185L79.637 62.435C79.144 62.151 78.583 62 78.012 62V111.5C78.581 111.5 79.144 111.35 79.637 111.064L98.257 100.314C99.259 99.736 99.882 98.658 99.882 97.5V76C99.882 74.842 99.259 73.764 98.257 73.185Z" fill="black"/>
<path d="M153.257 70.587L134.637 59.837C132.703 58.721 130.321 58.721 128.387 59.837L109.768 70.587C107.834 71.703 106.643 73.767 106.643 75.999V97.499C106.643 99.732 107.834 101.796 109.768 102.912L128.387 113.662C129.354 114.22 130.433 114.499 131.512 114.499C132.591 114.499 133.67 114.22 134.637 113.662L153.257 102.912C155.191 101.796 156.382 99.732 156.382 97.499V76C156.382 73.767 155.191 71.704 153.257 70.587Z" fill="#393A39"/>
<path d="M129.506 76.959C129.671 77.088 129.863 77.258 130.085 77.469C130.305 77.681 130.516 77.939 130.718 78.242C130.921 78.546 131.095 78.9 131.242 79.305C131.389 79.71 131.463 80.17 131.463 80.686C131.463 81.201 131.399 81.652 131.271 82.039C131.142 82.426 130.966 82.77 130.747 83.074C130.526 83.378 130.278 83.653 130.002 83.902C129.727 84.15 129.441 84.384 129.148 84.605C128.963 84.79 128.789 84.983 128.624 85.185C128.459 85.387 128.375 85.646 128.375 85.958C128.375 86.27 128.459 86.515 128.624 86.689C128.789 86.863 128.945 87.016 129.093 87.145L130.086 87.917C130.379 88.175 130.668 88.433 130.953 88.69C131.238 88.947 131.486 89.223 131.697 89.518C131.909 89.812 132.08 90.144 132.209 90.511C132.336 90.879 132.4 91.302 132.4 91.781C132.4 92.426 132.244 93.06 131.932 93.686C131.619 94.311 131.16 94.868 130.554 95.357C129.947 95.843 129.189 96.24 128.279 96.544C127.369 96.847 126.326 96.999 125.15 96.999C124.158 96.999 123.289 96.889 122.545 96.668C121.801 96.448 121.181 96.154 120.685 95.786C120.189 95.419 119.821 95.001 119.582 94.532C119.343 94.063 119.223 93.571 119.223 93.057C119.223 92.56 119.375 91.995 119.678 91.362C119.982 90.727 120.537 90.172 121.346 89.693C121.769 89.436 122.224 89.229 122.711 89.073C123.197 88.917 123.68 88.793 124.158 88.701C124.636 88.609 125.086 88.545 125.51 88.509C125.932 88.472 126.299 88.445 126.612 88.426C126.41 88.169 126.221 87.898 126.048 87.613C125.872 87.328 125.786 86.974 125.786 86.551C125.786 86.313 125.813 86.114 125.868 85.959C125.923 85.802 125.987 85.642 126.061 85.476C125.914 85.495 125.766 85.508 125.62 85.518C125.473 85.527 125.325 85.532 125.179 85.532C124.445 85.532 123.791 85.408 123.222 85.16C122.652 84.912 122.174 84.586 121.788 84.181C121.402 83.778 121.108 83.313 120.906 82.789C120.704 82.265 120.602 81.737 120.602 81.203C120.602 80.56 120.748 79.913 121.043 79.26C121.337 78.609 121.777 78.025 122.366 77.51C123.156 76.867 123.988 76.453 124.861 76.269C125.733 76.085 126.547 75.993 127.3 75.993H132.98L131.214 76.958H129.506V76.959ZM130.554 92.866C130.554 92.516 130.493 92.2 130.374 91.915C130.254 91.63 130.075 91.35 129.836 91.074C129.597 90.798 129.284 90.513 128.899 90.22C128.512 89.926 128.062 89.595 127.547 89.228C127.437 89.209 127.34 89.2 127.258 89.2C127.175 89.2 127.06 89.2 126.913 89.2C126.857 89.2 126.728 89.204 126.527 89.215C126.324 89.224 126.086 89.242 125.81 89.27C125.534 89.297 125.24 89.343 124.927 89.408C124.614 89.473 124.312 89.551 124.018 89.642C123.871 89.697 123.664 89.785 123.398 89.904C123.13 90.023 122.869 90.194 122.611 90.414C122.354 90.635 122.13 90.91 121.936 91.241C121.744 91.572 121.646 91.985 121.646 92.482C121.646 93.474 122.084 94.283 122.957 94.908C123.83 95.532 125.011 95.846 126.499 95.846C127.822 95.846 128.829 95.565 129.518 95.005C130.208 94.442 130.554 93.729 130.554 92.866ZM126.473 84.76C126.822 84.76 127.167 84.687 127.507 84.539C127.847 84.391 128.127 84.207 128.347 83.985C128.66 83.672 128.853 83.321 128.927 82.934C128.999 82.546 129.037 82.224 129.037 81.965C129.037 81.467 128.963 80.923 128.815 80.332C128.669 79.742 128.448 79.189 128.154 78.673C127.86 78.157 127.497 77.728 127.065 77.387C126.633 77.045 126.131 76.875 125.563 76.875C125.194 76.875 124.836 76.958 124.487 77.124C124.138 77.29 123.854 77.511 123.633 77.787C123.394 78.083 123.234 78.405 123.152 78.756C123.069 79.107 123.027 79.466 123.027 79.835C123.027 80.296 123.096 80.813 123.234 81.384C123.372 81.956 123.584 82.491 123.868 82.989C124.153 83.486 124.512 83.906 124.943 84.248C125.375 84.59 125.884 84.76 126.473 84.76Z" fill="white"/>
<path d="M143.416 81.088H139.518V85.007H138.28V81.088H134.362V79.851H138.28V75.994H139.518V79.851H143.416V81.088Z" fill="white"/>
<path opacity="0.05" d="M151.757 73.185L133.137 62.435C132.644 62.151 132.082 61.999 131.512 61.999V111.499C132.081 111.499 132.644 111.349 133.137 111.063L151.757 100.313C152.759 99.735 153.382 98.657 153.382 97.499V76C153.382 74.842 152.759 73.764 151.757 73.185Z" fill="black"/>
<path d="M205.757 70.587L187.137 59.837C185.203 58.721 182.821 58.721 180.887 59.837L162.268 70.587C160.333 71.703 159.143 73.767 159.143 75.999V97.499C159.143 99.732 160.333 101.796 162.268 102.912L180.887 113.662C181.854 114.22 182.933 114.499 184.012 114.499C185.091 114.499 186.17 114.22 187.137 113.662L205.757 102.912C207.691 101.796 208.882 99.732 208.882 97.499V76C208.882 73.767 207.691 71.704 205.757 70.587Z" fill="white"/>
<path opacity="0.02" d="M204.257 73.185L185.637 62.435C185.144 62.151 184.582 61.999 184.012 61.999V111.499C184.581 111.499 185.144 111.349 185.637 111.063L204.257 100.313C205.259 99.735 205.882 98.657 205.882 97.499V76C205.882 74.842 205.259 73.764 204.257 73.185Z" fill="black"/>
<path d="M190.753 91.789C193.733 91.789 196.148 89.3736 196.148 86.394C196.148 83.4144 193.733 80.999 190.753 80.999C187.773 80.999 185.358 83.4144 185.358 86.394C185.358 89.3736 187.773 91.789 190.753 91.789Z" fill="#EC0F80"/>
<path d="M177.218 91.789C180.198 91.789 182.613 89.3736 182.613 86.394C182.613 83.4144 180.198 80.999 177.218 80.999C174.238 80.999 171.823 83.4144 171.823 86.394C171.823 89.3736 174.238 91.789 177.218 91.789Z" fill="black"/>
<path d="M259.257 70.587L240.637 59.837C238.703 58.721 236.321 58.721 234.387 59.837L215.768 70.587C213.833 71.703 212.643 73.767 212.643 75.999V97.499C212.643 99.732 213.833 101.796 215.768 102.912L234.387 113.662C235.354 114.22 236.433 114.499 237.512 114.499C238.591 114.499 239.67 114.22 240.637 113.662L259.257 102.912C261.191 101.796 262.382 99.732 262.382 97.499V76C262.382 73.767 261.191 71.704 259.257 70.587Z" fill="#24B4E8"/>
<path d="M249.542 80.81C249.436 83.151 247.797 86.353 244.633 90.414C241.358 94.663 238.587 96.783 236.32 96.783C234.917 96.783 233.729 95.492 232.759 92.901C232.111 90.525 231.462 88.148 230.815 85.777C230.095 83.185 229.322 81.89 228.494 81.89C228.314 81.89 227.685 82.268 226.605 83.024L225.472 81.565C226.66 80.525 227.828 79.479 228.982 78.438C230.563 77.069 231.751 76.352 232.543 76.277C234.412 76.096 235.565 77.375 235.998 80.107C236.463 83.059 236.789 84.895 236.969 85.615C237.508 88.061 238.102 89.282 238.75 89.282C239.252 89.282 240.304 88.79 241.313 87.209C242.321 85.624 242.927 84.204 243.001 83.375C243.146 82.009 242.239 81.245 241.017 81.245C240.442 81.245 239.847 81.367 239.236 81.623C240.424 77.771 242.691 75.901 246.037 76.01C248.517 76.08 249.685 77.683 249.542 80.81Z" fill="white"/>
<path opacity="0.02" d="M257.757 73.185L239.137 62.435C238.644 62.151 238.082 61.999 237.512 61.999V111.499C238.081 111.499 238.644 111.349 239.137 111.063L257.757 100.313C258.759 99.735 259.382 98.657 259.382 97.499V76C259.382 74.842 258.759 73.764 257.757 73.185Z" fill="black"/>
<path d="M46.614 129.587L27.994 118.837C26.06 117.721 23.678 117.721 21.744 118.837L3.124 129.587C1.191 130.704 0 132.767 0 135V156.5C0 158.733 1.191 160.797 3.125 161.913L21.745 172.663C22.712 173.221 23.791 173.5 24.87 173.5C25.949 173.5 27.028 173.221 27.995 172.663L46.615 161.913C48.549 160.797 49.74 158.733 49.74 156.5V135C49.739 132.767 48.548 130.704 46.614 129.587Z" fill="#4371B7"/>
<path d="M22.474 145.085C22.474 145.085 24.825 144.91 24.825 142.153C24.825 139.396 22.902 138.05 20.466 138.05H15.98H15.849H12.448V153.457H15.849H15.98H20.465C20.465 153.457 25.359 153.611 25.359 148.909C25.359 148.911 25.573 145.085 22.474 145.085ZM15.98 140.79H19.888H20.465C20.465 140.79 21.555 140.79 21.555 142.393C21.555 143.997 20.913 144.229 20.187 144.229H15.98V140.79ZM20.239 150.72C20.12 150.723 20.019 150.72 19.952 150.72H15.98V146.603H20.465C20.465 146.603 22.089 146.582 22.089 148.718C22.089 150.521 20.876 150.707 20.239 150.72Z" fill="white"/>
<path d="M34.18 143.013C34.961 143.335 35.608 143.844 36.116 144.537C36.575 145.15 36.875 145.86 37.01 146.668C37.089 147.142 37.263 148.025 37.249 148.916L28.8 148.895C28.847 149.93 29.379 150.471 30.114 150.887C30.56 151.145 31.102 151.274 31.73 151.274C32.398 151.274 32.941 151.118 33.357 150.803C33.586 150.632 33.848 150.517 34.022 150.216H37.217C37.138 150.825 36.511 151.324 35.867 151.955C34.862 152.956 33.457 153.457 31.649 153.457C30.157 153.457 28.841 153.036 27.701 152.188C26.561 151.345 25.991 149.969 25.991 148.064C25.991 146.279 26.504 144.911 27.533 143.958C28.562 143.007 29.899 142.529 31.542 142.529C32.52 142.531 33.399 142.692 34.18 143.013ZM29.795 145.342C29.382 145.733 29.122 146.266 29.013 146.936H34.064C34.01 146.222 33.75 145.678 33.284 145.307C32.817 144.938 32.237 144.752 31.544 144.752C30.792 144.752 30.21 144.949 29.795 145.342Z" fill="white"/>
<path d="M34.672 140.828L28.156 140.845L28.115 139.304L34.672 139.32V140.828Z" fill="white"/>
<path opacity="0.05" d="M45.115 132.185L26.495 121.435C26.001 121.151 25.439 121 24.87 121V170.5C25.439 170.5 26.002 170.35 26.495 170.064L45.115 159.314C46.117 158.736 46.74 157.658 46.74 156.5V135C46.739 133.842 46.117 132.764 45.115 132.185Z" fill="black"/>
<path d="M99.757 130.087L81.137 119.337C79.203 118.221 76.821 118.221 74.887 119.337L56.268 130.087C54.334 131.203 53.143 133.267 53.143 135.499V157C53.143 159.233 54.334 161.297 56.268 162.413L74.887 173.163C75.854 173.721 76.933 174 78.012 174C79.091 174 80.17 173.721 81.137 173.163L99.757 162.413C101.691 161.297 102.882 159.233 102.882 157V135.5C102.882 133.267 101.691 131.204 99.757 130.087Z" fill="#EC2928"/>
<path d="M85.846 145.002H70.233C68.179 145.002 66.515 146.832 66.515 149.09V150.569V154.123V154.458C66.515 156.716 68.18 158.546 70.233 158.546H70.725H85.354H85.846C87.9 158.546 89.565 156.716 89.565 154.458V154.123V150.569V149.09C89.565 146.833 87.9 145.002 85.846 145.002ZM73.336 148.876H71.809V156.464H70.334V148.876H68.807V147.585H73.336V148.876ZM77.65 156.464H76.34V155.746C76.097 156.011 75.847 156.214 75.585 156.351C75.324 156.493 75.071 156.559 74.824 156.559C74.521 156.559 74.295 156.463 74.14 156.267C73.988 156.072 73.91 155.781 73.91 155.389V149.911H75.22V154.936C75.22 155.091 75.248 155.204 75.301 155.272C75.358 155.343 75.448 155.376 75.571 155.376C75.665 155.376 75.788 155.33 75.936 155.239C76.084 155.146 76.219 155.029 76.342 154.886V149.909H77.652V156.464H77.65ZM82.401 155.112C82.401 155.575 82.298 155.93 82.093 156.178C81.889 156.425 81.591 156.548 81.203 156.548C80.946 156.548 80.717 156.502 80.517 156.406C80.317 156.31 80.129 156.164 79.957 155.961V156.464H78.633V147.585H79.957V150.444C80.134 150.246 80.323 150.092 80.518 149.99C80.719 149.885 80.92 149.834 81.123 149.834C81.537 149.834 81.853 149.972 82.071 150.252C82.291 150.53 82.4 150.94 82.4 151.477V155.112H82.401ZM86.941 153.346H84.437V154.58C84.437 154.925 84.479 155.164 84.565 155.298C84.651 155.432 84.8 155.497 85.008 155.497C85.226 155.497 85.377 155.44 85.464 155.328C85.549 155.214 85.594 154.966 85.594 154.58V154.281H86.941V154.617C86.941 155.29 86.778 155.795 86.447 156.137C86.121 156.475 85.631 156.644 84.978 156.644C84.392 156.644 83.928 156.464 83.592 156.104C83.256 155.747 83.086 155.25 83.086 154.618V151.676C83.086 151.111 83.272 150.645 83.643 150.287C84.014 149.93 84.489 149.752 85.076 149.752C85.676 149.752 86.136 149.916 86.458 150.248C86.78 150.58 86.941 151.056 86.941 151.676V153.346V153.346Z" fill="white"/>
<path d="M85.021 150.897C84.812 150.897 84.664 150.957 84.573 151.078C84.48 151.193 84.437 151.391 84.437 151.666V152.327H85.594V151.666C85.594 151.391 85.547 151.193 85.456 151.078C85.368 150.957 85.22 150.897 85.021 150.897Z" fill="white"/>
<path d="M80.506 150.875C80.413 150.875 80.319 150.896 80.228 150.938C80.137 150.98 80.047 151.048 79.958 151.138V155.219C80.064 155.324 80.168 155.407 80.269 155.452C80.371 155.497 80.474 155.522 80.585 155.522C80.746 155.522 80.863 155.476 80.939 155.382C81.013 155.289 81.052 155.14 81.052 154.931V151.547C81.052 151.324 81.007 151.158 80.915 151.043C80.818 150.931 80.682 150.875 80.506 150.875Z" fill="white"/>
<path d="M72.271 143.672H73.93V139.614L75.862 133.889H74.176L73.149 137.799H73.044L71.966 133.889H70.295L72.271 139.796V143.672Z" fill="white"/>
<path d="M78.11 143.854C78.78 143.854 79.306 143.678 79.689 143.327C80.069 142.973 80.26 142.493 80.26 141.876V138.147C80.26 137.597 80.066 137.145 79.678 136.796C79.287 136.448 78.787 136.273 78.177 136.273C77.507 136.273 76.973 136.439 76.576 136.77C76.18 137.101 75.981 137.544 75.981 138.105V141.846C75.981 142.459 76.175 142.946 76.561 143.309C76.949 143.672 77.466 143.854 78.11 143.854ZM77.499 138.051C77.499 137.894 77.555 137.767 77.666 137.667C77.78 137.57 77.926 137.522 78.105 137.522C78.3 137.522 78.458 137.57 78.579 137.667C78.698 137.767 78.758 137.894 78.758 138.051V141.982C78.758 142.174 78.699 142.328 78.581 142.439C78.463 142.548 78.305 142.603 78.105 142.603C77.911 142.603 77.76 142.551 77.655 142.441C77.551 142.332 77.498 142.179 77.498 141.982V138.051H77.499Z" fill="white"/>
<path d="M82.485 143.777C82.762 143.777 83.047 143.699 83.339 143.547C83.634 143.393 83.918 143.167 84.188 142.873V143.673H85.662V136.456H84.188V141.934C84.051 142.091 83.899 142.22 83.734 142.322C83.567 142.424 83.43 142.474 83.322 142.474C83.184 142.474 83.082 142.437 83.022 142.358C82.961 142.283 82.927 142.159 82.927 141.989V136.457H81.455V142.489C81.455 142.918 81.542 143.24 81.713 143.453C81.888 143.667 82.143 143.777 82.485 143.777Z" fill="white"/>
<path opacity="0.05" d="M98.257 132.685L79.637 121.935C79.144 121.651 78.582 121.499 78.012 121.499V171C78.581 171 79.144 170.85 79.637 170.564L98.257 159.814C99.259 159.236 99.882 158.158 99.882 157V135.5C99.882 134.342 99.259 133.264 98.257 132.685Z" fill="black"/>
<path d="M153.224 129.833L134.604 119.083C132.67 117.967 130.288 117.967 128.354 119.083L109.735 129.833C107.801 130.949 106.61 133.013 106.61 135.245V156.745C106.61 158.978 107.801 161.042 109.735 162.158L128.354 172.908C129.321 173.466 130.4 173.745 131.479 173.745C132.558 173.745 133.637 173.466 134.604 172.908L153.224 162.158C155.158 161.042 156.349 158.978 156.349 156.745V135.245C156.349 133.012 155.158 130.949 153.224 129.833Z" fill="#3A5A76"/>
<path d="M132.55 133.859V139.549H138.239V143.943H132.55V150.253C132.55 151.681 132.532 152.504 132.683 152.908C132.833 153.31 133.21 153.728 133.621 153.97C134.166 154.297 134.787 154.46 135.488 154.46C136.734 154.46 137.973 154.056 139.206 153.246V157.126C138.156 157.621 137.203 157.97 136.35 158.168C135.497 158.366 134.577 158.468 133.585 158.468C132.46 158.468 131.796 158.325 130.932 158.043C130.068 157.757 129.33 157.351 128.721 156.828C128.108 156.302 127.687 155.742 127.451 155.15C127.215 154.557 127.096 153.698 127.096 152.573V143.943H123.754V140.458C124.72 140.145 125.84 139.694 126.528 139.108C127.218 138.52 127.772 137.817 128.188 136.995C128.607 136.175 128.894 135.128 129.05 133.859H132.55V133.859Z" fill="white"/>
<path opacity="0.05" d="M151.724 132.43L133.104 121.68C132.611 121.396 132.049 121.244 131.479 121.244V170.744C132.048 170.744 132.611 170.594 133.104 170.308L151.724 159.558C152.726 158.98 153.349 157.902 153.349 156.744V135.244C153.349 134.087 152.726 133.009 151.724 132.43Z" fill="black"/>
<path d="M205.757 129.833L187.137 119.083C185.203 117.967 182.821 117.967 180.887 119.083L162.268 129.833C160.333 130.949 159.143 133.013 159.143 135.245V156.745C159.143 158.978 160.333 161.042 162.268 162.158L180.887 172.908C181.854 173.466 182.933 173.745 184.012 173.745C185.091 173.745 186.17 173.466 187.137 172.908L205.757 162.158C207.691 161.042 208.882 158.978 208.882 156.745V135.245C208.882 133.012 207.691 130.949 205.757 129.833Z" fill="#548F5F"/>
<path d="M184.012 131.244L173.049 157.207H181.812V161.082H186.25V157.207H194.976L184.012 131.244ZM185.203 160.019H182.857V157.206V155.143V151.716L180.414 150.065L180.822 149.535L182.857 150.91V150.652V146.83H185.203V149.464L187.318 148.394L187.644 149.037L185.203 150.273V152.118L189.058 150.165L189.425 150.891L185.202 153.03V155.145V157.208V160.019H185.203Z" fill="white"/>
<path opacity="0.05" d="M204.257 132.43L185.637 121.68C185.144 121.396 184.582 121.244 184.012 121.244V170.744C184.581 170.744 185.144 170.594 185.637 170.308L204.257 159.558C205.259 158.98 205.882 157.902 205.882 156.744V135.244C205.882 134.087 205.259 133.009 204.257 132.43Z" fill="black"/>
<path d="M258.953 129.771L240.332 119.021C238.398 117.905 236.016 117.905 234.082 119.021L215.463 129.771C213.529 130.887 212.338 132.951 212.338 135.184V156.684C212.338 158.916 213.529 160.98 215.463 162.096L234.082 172.846C235.049 173.405 236.129 173.684 237.207 173.684C238.287 173.684 239.365 173.405 240.332 172.846L258.953 162.096C260.887 160.98 262.078 158.916 262.078 156.684V135.184C262.078 132.951 260.886 130.887 258.953 129.771Z" fill="#8D8D8D"/>
<path d="M223.646 145.834C223.646 151.249 226.794 155.934 231.361 158.149L224.832 140.261C224.072 141.966 223.646 143.848 223.646 145.834ZM246.572 145.143C246.572 143.452 245.964 142.279 245.443 141.368C244.75 140.24 244.101 139.287 244.101 138.158C244.101 136.899 245.052 135.729 246.4 135.729C246.458 135.729 246.517 135.737 246.576 135.741C244.14 133.511 240.896 132.146 237.334 132.146C232.551 132.146 228.346 134.601 225.898 138.316C226.22 138.326 226.522 138.334 226.779 138.334C228.211 138.334 230.427 138.158 230.427 138.158C231.163 138.117 231.25 139.198 230.513 139.287C230.513 139.287 229.772 139.373 228.947 139.417L233.931 154.24L236.927 145.259L234.793 139.417C234.056 139.373 233.358 139.287 233.358 139.287C232.62 139.242 232.707 138.117 233.445 138.158C233.445 138.158 235.704 138.334 237.049 138.334C238.479 138.334 240.697 138.158 240.697 138.158C241.433 138.117 241.52 139.198 240.783 139.287C240.783 139.287 240.043 139.373 239.217 139.417L244.164 154.128L245.529 149.568C246.224 147.789 246.572 146.315 246.572 145.143ZM237.574 147.032L233.467 158.966C234.694 159.326 235.988 159.522 237.334 159.522C238.927 159.522 240.457 159.246 241.879 158.745C241.842 158.686 241.809 158.626 241.781 158.558L237.574 147.032ZM249.341 139.266C249.403 139.704 249.437 140.17 249.437 140.675C249.437 142.063 249.175 143.623 248.394 145.576L244.214 157.662C248.282 155.291 251.018 150.883 251.018 145.834C251.018 143.454 250.411 141.217 249.341 139.266Z" fill="white"/>
<path opacity="0.05" d="M257.453 132.37L238.832 121.62C238.34 121.335 237.777 121.184 237.207 121.184V170.684C237.777 170.684 238.34 170.534 238.832 170.248L257.453 159.498C258.455 158.919 259.078 157.841 259.078 156.684V135.184C259.078 134.026 258.455 132.948 257.453 132.37Z" fill="black"/>
</g>
<defs>
<clipPath id="clip0_1_2">
<rect width="262.078" height="174" fill="white"/>
</clipPath>
</defs>
</svg>
